{"accessors":[{"bufferView":0,"byteOffset":0,"componentType":5126,"count":3905,"max":[0.1736,0.482935,0.066828],"min":[-0.17375,-0.404125,-0.068672],"normalized":false,"type":"VEC3"},{"bufferView":1,"byteOffset":0,"componentType":5126,"count":3905,"max":[0.99001,0.988208,0.972917],"min":[-1,-0.988171,-0.999997],"normalized":false,"type":"VEC3"},{"bufferView":2,"byteOffset":0,"componentType":5125,"count":5724,"max":[3904],"min":[0],"normalized":false,"type":"SCALAR"},{"bufferView":3,"byteOffset":0,"componentType":5126,"count":2325,"max":[21.700001,16.6,22],"min":[-22,-4,-22],"normalized":false,"type":"VEC3"},{"bufferView":4,"byteOffset":0,"componentType":5126,"count":2325,"max":[1,1,1],"min":[-1,-1,-1],"normalized":false,"type":"VEC3"},{"bufferView":5,"byteOffset":0,"componentType":5126,"count":2325,"max":[1,1],"min":[0,0],"normalized":false,"type":"VEC2"},{"bufferView":6,"byteOffset":0,"componentType":5125,"count":2325,"max":[2324],"min":[0],"normalized":false,"type":"SCALAR"},{"bufferView":7,"byteOffset":0,"componentType":5126,"count":102,"max":[5.3,16.6,5.6],"min":[-5.300001,16,-5.6],"normalized":false,"type":"VEC3"},{"bufferView":8,"byteOffset":0,"componentType":5126,"count":102,"max":[1,1,1],"min":[-1,-1,-1],"normalized":false,"type":"VEC3"},{"bufferView":9,"byteOffset":0,"componentType":5126,"count":102,"max":[1,1],"min":[0,0],"normalized":false,"type":"VEC2"},{"bufferView":10,"byteOffset":0,"componentType":5125,"count":102,"max":[101],"min":[0],"normalized":false,"type":"SCALAR"}],"asset":{"generator":"Godot Engine v3.4.4.stable.arch_linux@unknown","version":"2.0"},"bufferViews":[{"buffer":0,"byteLength":46860,"byteOffset":0},{"buffer":0,"byteLength":46860,"byteOffset":46860},{"buffer":0,"byteLength":22896,"byteOffset":93720},{"buffer":0,"byteLength":27900,"byteOffset":116616},{"buffer":0,"byteLength":27900,"byteOffset":144516},{"buffer":0,"byteLength":18600,"byteOffset":172416},{"buffer":0,"byteLength":9300,"byteOffset":191016},{"buffer":0,"byteLength":1224,"byteOffset":200316},{"buffer":0,"byteLength":1224,"byteOffset":201540},{"buffer":0,"byteLength":816,"byteOffset":202764},{"buffer":0,"byteLength":408,"byteOffset":203580}],"buffers":[{"byteLength":203988,"uri":"20.bin"}],"cameras":[{"perspective":{"yfov":1.22173,"zfar":100,"znear":0.05},"type":"perspective"}],"extensions":{"KHR_lights_punctual":{"lights":[{"color":[1,1,1],"intensity":0.784,"range":340282346638528859811704183484516925440,"type":"directional"}]}},"extensionsRequired":["KHR_texture_transform"],"extensionsUsed":["KHR_lights_punctual","KHR_texture_transform"],"materials":[{"pbrMetallicRoughness":{"baseColorFactor":[0,1,0.027321,1],"metallicFactor":0,"roughnessFactor":1}}],"meshes":[{"extras":{"targetNames":[]},"primitives":[{"attributes":{"NORMAL":1,"POSITION":0},"indices":2,"material":0,"mode":4}]},{"extras":{"targetNames":[]},"primitives":[{"attributes":{"NORMAL":4,"POSITION":3,"TEXCOORD_0":5},"indices":6,"mode":4},{"attributes":{"NORMAL":8,"POSITION":7,"TEXCOORD_0":9},"indices":10,"mode":4}]}],"nodes":[{"children":[1,7,8,9,16,24],"extensions":{},"name":"2"},{"children":[2,4,6],"extensions":{},"name":"Player","translation":[0,-1.6,0]},{"children":[3],"extensions":{},"name":"SpringArm","translation":[0,1.2,0]},{"camera":0,"extensions":{},"name":"Camera"},{"children":[5],"extensions":{},"name":"Pivot"},{"extensions":{},"mesh":0,"name":"Skin","rotation":[0,1,0,-0],"scale":[2,2,2],"translation":[0,0.410329,0]},{"extensions":{},"name":"CollisionShape3","rotation":[0.707107,0,0,0.707107],"translation":[0,0.472468,0]},{"extensions":{"KHR_lights_punctual":{"light":0}},"name":"DirectionalLight","rotation":[-0.786566,0.017037,-0.129409,0.603554],"translation":[0,5,0]},{"extensions":{},"name":"WorldEnvironment"},{"children":[10],"extensions":{},"name":"Control"},{"children":[11],"extensions":{},"name":"ColorRect"},{"children":[12,15],"extensions":{},"name":"Panel"},{"children":[13,14],"extensions":{},"name":"HBoxContainer"},{"extensions":{},"name":"MainMenu_Button"},{"extensions":{},"name":"Restart_Button"},{"extensions":{},"name":"Label"},{"children":[17],"extensions":{},"name":"Win"},{"children":[18],"extensions":{},"name":"ColorRect2"},{"children":[19,23],"extensions":{},"name":"Panel2"},{"children":[20,21,22],"extensions":{},"name":"HBoxContainer2"},{"extensions":{},"name":"MainMenu_Button2"},{"extensions":{},"name":"Restart_Button2"},{"extensions":{},"name":"NextLevel_Button"},{"extensions":{},"name":"Label2"},{"children":[25,26,27,35,44,52,60],"extensions":{},"mesh":1,"name":"CSGCombiner2"},{"extensions":{},"name":"CSGBox","translation":[0,-2,0]},{"extensions":{},"name":"CSGBox2","translation":[0,-1,0]},{"children":[28,29,30,31,32,33,34],"extensions":{},"name":"CSGBox3","translation":[0,-1,-9]},{"extensions":{},"name":"CSGBox7","scale":[1,1,0.1],"translation":[0,6,-3.3]},{"extensions":{},"name":"CSGBox8","scale":[1,1,0.1],"translation":[0,11,-0.3]},{"extensions":{},"name":"CSGBox9","rotation":[-0.707107,0,-0,0.707107],"scale":[1,1,0.1],"translation":[-0,13.3,-6.999999]},{"extensions":{},"name":"CSGBox10","rotation":[0.5,0.5,0.5,-0.5],"scale":[1,1,0.1],"translation":[0.099999,13.3,-12]},{"extensions":{},"name":"CSGBox11","rotation":[-0,0.707107,0.707107,0],"scale":[1,1,0.1],"translation":[6.099998,13.3,-3]},{"extensions":{},"name":"CSGBox12","rotation":[-0,0.707107,0.707107,0],"scale":[1,1,0.1],"translation":[-5.900002,13.3,-3]},{"extensions":{},"name":"CSGBox13","rotation":[0.707107,0,0,0.707107],"scale":[1,1,0.1],"translation":[0,17.299999,1.4]},{"children":[36,37,38,39,40,41,42,43],"extensions":{},"name":"CSGBox4","translation":[0,-1,9]},{"extensions":{},"name":"CSGBox72","scale":[1,1,0.1],"translation":[-0,6,3.3]},{"extensions":{},"name":"CSGBox82","rotation":[0,1,0,-0],"scale":[1,1,0.1],"translation":[-0,11,0.300001]},{"extensions":{},"name":"CSGBox92","rotation":[0,0.707107,0.707107,-0],"scale":[1,1,0.1],"translation":[0,13.3,7]},{"extensions":{},"name":"CSGBox102","rotation":[-0.5,0.5,0.5,0.5],"scale":[1,1,0.1],"translation":[0.099998,13.3,12]},{"extensions":{},"name":"CSGBox112","rotation":[-0.707107,0,-0,0.707107],"scale":[1,1,0.1],"translation":[-5.900002,13.3,3.000001]},{"extensions":{},"name":"CSGBox122","rotation":[-0.707107,0,-0,0.707107],"scale":[1,1,0.1],"translation":[6.099998,13.3,3]},{"extensions":{},"name":"CSGBox132","rotation":[0.707107,0,0,0.707107],"scale":[1,1,0.1],"translation":[0,17.299999,-1.4]},{"extensions":{},"name":"CSGBox14","rotation":[0,1,0,-0],"scale":[1,1,0.1],"translation":[-0,11,0.300001]},{"children":[45,46,47,48,49,50,51],"extensions":{},"name":"CSGBox5","rotation":[0,-0.707107,0,0.707107],"translation":[-9,-1,0]},{"extensions":{},"name":"CSGBox73","scale":[1,1,0.1],"translation":[0,6,3.3]},{"extensions":{},"name":"CSGBox83","rotation":[0,1,0,-0],"scale":[1,1,0.1],"translation":[-0,11,0.000001]},{"extensions":{},"name":"CSGBox93","rotation":[0,0.707107,0.707107,-0],"scale":[1,1,0.1],"translation":[0,13.3,7]},{"extensions":{},"name":"CSGBox103","rotation":[-0.5,0.5,0.5,0.5],"scale":[1,1,0.1],"translation":[0.099998,13.3,12]},{"extensions":{},"name":"CSGBox113","rotation":[-0.707107,0,-0,0.707107],"scale":[1,1,0.1],"translation":[-5.900002,13.3,3.000001]},{"extensions":{},"name":"CSGBox123","rotation":[-0.707107,0,-0,0.707107],"scale":[1,1,0.1],"translation":[6.099998,13.3,3]},{"extensions":{},"name":"CSGBox133","rotation":[0.707107,0,0,0.707107],"scale":[1,1,0.1],"translation":[0,17.300001,-1.7]},{"children":[53,54,55,56,57,58,59],"extensions":{},"name":"CSGBox6","rotation":[0,-0.707107,0,0.707107],"translation":[9,-1,0]},{"extensions":{},"name":"CSGBox74","scale":[1,1,0.1],"translation":[-0,6,-3]},{"extensions":{},"name":"CSGBox84","scale":[1,1,0.1],"translation":[0,11,0]},{"extensions":{},"name":"CSGBox94","rotation":[-0.707107,0,0,0.707107],"scale":[1,1,0.1],"translation":[-0.000001,13.3,-6.699999]},{"extensions":{},"name":"CSGBox104","rotation":[0.5,0.5,0.5,-0.5],"scale":[1,1,0.1],"translation":[0.099999,13.3,-11.700001]},{"extensions":{},"name":"CSGBox114","rotation":[-0,0.707107,0.707107,0],"scale":[1,1,0.1],"translation":[6.099998,13.3,-2.7]},{"extensions":{},"name":"CSGBox124","rotation":[-0,0.707107,0.707107,0],"scale":[1,1,0.1],"translation":[-5.900002,13.3,-2.7]},{"extensions":{},"name":"CSGBox134","rotation":[0.707107,0,0,0.707107],"scale":[1,1,0.1],"translation":[0,17.300001,1.699999]},{"extensions":{},"name":"CSGBox75","translation":[0,16.300001,0]}],"scene":0,"scenes":[{"nodes":[0]}]}